<?xml version="1.0" standalone="no"?>
<!DOCTYPE svg PUBLIC "-//W3C//DTD SVG 20010904//EN"
 "http://www.w3.org/TR/2001/REC-SVG-20010904/DTD/svg10.dtd">
<svg version="1.0" xmlns="http://www.w3.org/2000/svg"
 width="255.000000pt" height="255.000000pt" viewBox="0 0 255.000000 255.000000"
 preserveAspectRatio="xMidYMid meet">
<metadata>
Created by potrace 1.14, written by Peter Selinger 2001-2017
</metadata>
<g transform="translate(0.000000,255.000000) scale(0.100000,-0.100000)"
fill="#000000" stroke="none">
<path d="M1338 2425 c-2 -1 -36 -5 -75 -9 -487 -41 -924 -368 -1098 -821 -237
-616 9 -1227 570 -1414 93 -31 109 -35 235 -55 104 -16 333 -11 424 9 11 3 32
7 46 9 72 11 199 53 295 96 258 116 493 345 619 603 44 90 91 220 102 281 3
17 9 49 13 71 21 99 21 311 0 424 -89 487 -469 787 -1017 804 -61 2 -113 3
-114 2z m-165 -340 c20 -14 37 -30 37 -35 0 -19 45 -50 72 -50 15 0 45 9 65
20 76 41 174 18 222 -51 27 -40 35 -45 88 -54 91 -15 144 -65 157 -150 8 -49
19 -61 76 -86 31 -13 55 -33 74 -62 25 -38 27 -48 23 -108 -5 -63 -4 -68 29
-114 35 -50 43 -91 25 -138 -6 -16 -6 -38 0 -62 13 -46 -1 -92 -39 -127 -64
-60 -116 -68 -215 -34 -40 15 -94 26 -120 26 -57 0 -154 -35 -167 -60 -26 -49
-6 -83 75 -130 51 -30 113 -87 132 -124 51 -97 1 -226 -106 -272 -71 -30 -182
-12 -266 43 -53 35 -81 33 -138 -10 -60 -46 -112 -61 -205 -60 -108 1 -165 32
-226 123 -25 38 -46 72 -46 74 0 22 163 97 178 82 3 -3 0 -6 -6 -6 -15 0 -49
-60 -55 -98 -13 -85 141 -136 268 -88 56 22 83 59 80 108 -3 61 -28 87 -110
119 l-30 12 70 23 c99 32 101 32 108 -21 8 -57 29 -97 71 -138 79 -76 132
-101 218 -102 57 0 70 3 93 25 60 55 67 131 18 184 -65 71 -220 140 -294 133
-48 -5 -55 3 -34 43 27 52 107 121 189 162 66 33 93 41 156 45 66 5 88 2 159
-22 80 -28 82 -28 121 -10 49 22 67 63 45 105 -14 26 -13 33 2 65 13 26 14 42
7 63 -15 43 -71 42 -173 -3 -45 -20 -87 -35 -94 -32 -6 2 18 26 53 53 104 78
160 139 160 173 0 62 -37 101 -96 101 -30 0 -56 -13 -97 -48 -65 -57 -90 -89
-119 -150 -17 -35 -32 -61 -35 -59 -10 11 45 128 99 209 33 49 64 105 68 124
10 45 -7 112 -34 129 -96 63 -219 -43 -184 -160 18 -62 12 -147 -17 -217 -42
-104 -55 -104 -35 0 21 109 19 151 -11 175 -35 28 -89 14 -167 -41 -59 -43
-70 -93 -33 -153 12 -19 21 -40 21 -48 0 -28 -42 -61 -76 -61 -31 0 -33 2 -39
45 -9 59 0 154 20 201 31 74 75 105 170 120 103 15 180 105 173 198 -4 45 -49
86 -93 86 -51 0 -83 -22 -132 -90 -68 -95 -173 -141 -173 -76 0 13 7 43 15 66
24 69 26 98 10 130 -28 53 -85 52 -155 -2 -53 -41 -87 -102 -95 -167 -7 -61 9
-104 55 -146 72 -68 76 -107 22 -240 -22 -55 -43 -120 -47 -145 -6 -40 -10
-46 -32 -48 -27 -2 -56 15 -48 28 2 4 5 31 6 60 2 45 -1 56 -20 72 -30 24 -65
23 -118 -3 -82 -40 -116 -129 -74 -192 31 -47 72 -67 171 -81 42 -6 120 -17
137 -20 7 -1 15 -5 18 -9 3 -4 2 -5 -1 -3 -8 6 -135 -38 -196 -69 -124 -62
-198 -144 -198 -220 0 -42 35 -75 79 -75 62 1 119 35 210 129 47 48 102 95
121 104 33 16 148 57 158 57 2 0 2 -13 -2 -30 -20 -96 -20 -92 -1 -88 22 4 43
58 44 111 1 62 -35 90 -150 116 -52 12 -110 23 -129 25 -19 2 -46 6 -60 10
-14 3 -41 8 -61 10 -78 11 -119 46 -119 100 0 49 103 124 140 101 5 -3 9 -36
9 -73 -1 -58 2 -68 22 -85 18 -15 34 -18 71 -14 26 3 48 2 48 -2 0 -12 73 -49
112 -56 80 -15 149 23 134 73 -12 36 -120 59 -201 42 -44 -9 -41 19 16 164 57
145 54 185 -26 274 -52 58 -62 94 -42 159 23 75 125 154 161 124 16 -13 14
-36 -10 -115 -19 -67 -18 -102 6 -126 47 -47 151 1 225 105 38 53 53 66 82 71
69 13 90 -50 44 -131 -21 -37 -64 -62 -121 -70 -149 -20 -228 -140 -218 -331
4 -89 22 -114 81 -114 47 0 94 31 112 74 12 27 11 35 -8 71 -12 22 -25 48 -29
57 -11 25 31 69 92 98 51 24 52 24 66 5 15 -21 12 -58 -16 -185 -6 -25 -12
-55 -15 -68 -2 -12 -31 -48 -64 -80 -53 -50 -60 -61 -55 -87 18 -102 116 -48
139 78 4 20 13 41 20 45 6 4 29 30 50 57 37 49 38 49 32 18 -9 -44 0 -63 29
-63 26 0 61 41 92 110 23 52 52 86 113 135 48 38 79 44 103 19 37 -37 8 -81
-116 -176 -44 -33 -84 -71 -90 -84 -9 -18 -19 -24 -44 -24 -47 0 -89 -38 -80
-73 11 -47 70 -44 118 7 12 13 48 32 78 40 30 9 77 27 104 41 55 28 106 33
106 11 0 -8 -4 -17 -9 -21 -18 -11 -22 -63 -7 -92 16 -32 12 -44 -21 -62 -18
-9 -35 -7 -95 14 -51 18 -93 26 -138 26 -163 -1 -350 -112 -420 -251 -26 -52
-28 -53 -96 -71 -91 -25 -83 -22 -136 -46 -26 -12 -71 -25 -100 -28 -71 -9
-150 -40 -201 -79 -42 -32 -44 -33 -90 -21 -84 21 -125 84 -113 171 8 59 24
89 85 153 30 31 51 63 51 76 0 12 -16 43 -35 68 -43 57 -55 86 -55 140 0 74
59 156 140 195 34 16 102 21 165 11 41 -7 73 16 81 57 7 38 -3 57 -59 116 -45
48 -60 95 -54 167 16 191 214 341 340 256z m515 -299 c9 -8 15 -33 15 -56 0
-33 -9 -54 -44 -103 -24 -34 -56 -84 -71 -112 -19 -34 -26 -41 -22 -23 11 47
11 99 2 147 -13 65 -12 97 6 123 32 45 83 56 114 24z m-549 -560 c29 -10 31
-13 17 -25 -17 -15 -73 -10 -123 10 l-28 12 25 7 c36 11 70 10 109 -4z m467
-1 c-26 -19 -42 -19 -26 0 7 8 20 15 29 15 13 -1 13 -3 -3 -15z m-242 -36
c-20 -33 -42 -40 -36 -11 4 18 42 55 50 48 2 -3 -4 -19 -14 -37z m-257 -123
c2 -2 -35 -17 -82 -35 -79 -30 -92 -39 -179 -127 -91 -92 -140 -124 -190 -124
-37 0 -45 46 -17 99 33 61 211 158 336 184 58 12 122 13 132 3z m339 -255 c76
-34 137 -77 157 -111 36 -60 -14 -130 -91 -130 -64 0 -176 67 -218 130 -27 40
-40 99 -30 126 8 22 119 13 182 -15z m-335 -112 c61 -43 41 -109 -39 -132 -79
-24 -196 2 -198 44 -1 30 46 90 90 113 32 16 106 4 147 -25z"/>
</g>
</svg>
