<?xml version="1.0" encoding="utf-8"?>
<!-- Generator: Adobe Illustrator 28.1.0, SVG Export Plug-In . SVG Version: 6.00 Build 0)  -->
<svg version="1.1" id="Layer_1" xmlns="http://www.w3.org/2000/svg" xmlns:xlink="http://www.w3.org/1999/xlink" x="0px" y="0px"
	 viewBox="0 0 2500 2500" style="enable-background:new 0 0 2500 2500;" xml:space="preserve">
<style type="text/css">
	.st0{fill:#00005B;}
	.st1{fill:#9999FF;}
</style>
<rect class="st0" width="2500" height="2500"/>
<g>
	<path class="st1" d="M1014.5,1449.5H621.7l-79.9,248.7c-2.2,9.3-10.8,15.8-20.4,15.3H322.4c-11.3,0-15.3-6.2-11.9-18.7l340.1-975.3
		c3.4-10.2,6.8-20.2,10.2-33.2c4.5-22.7,6.7-45.7,6.8-68.9c-0.8-5.8,3.2-11.1,8.9-11.9c1-0.1,2-0.1,3,0h270.3
		c7.9,0,12.4,2.8,13.6,8.5l386,1082.5c3.4,11.3,0,17-10.2,17h-221c-7.9,0.9-15.1-4.2-17-11.9L1014.5,1449.5z M682.9,1239.7h268.6
		c-6.8-22.7-14.7-48.2-23.8-76.5c-9.1-28.3-18.7-58.6-28.9-91l-30.6-96.9c-10.2-32.3-19.6-63.5-28.1-93.5
		c-8.5-30-16.1-57.5-22.9-82.5h-1.7c-9.6,45.9-21.5,91.3-35.7,136c-15.9,51-32,103.1-48.5,156.4
		C714.9,1145.1,698.8,1194.4,682.9,1239.7z M1975.1,1352.7h-334.9c4.1,33.1,15.1,65.1,32.3,93.7c19,28.3,45.9,50.5,77.3,63.8
		c42.6,18.4,88.7,27.5,135.2,26.5c36.8-0.7,73.5-4.7,109.7-12c32.3-4.4,64-12.6,94.3-24.6c5.6-4.5,8.5-1.7,8.5,8.5V1670
		c0.3,4.4-0.6,8.8-2.6,12.7c-1.9,3.1-4.6,5.7-7.6,7.6c-33.6,14.9-69,25.4-105.3,31.4c-49.3,9.3-99.4,13.5-149.6,12.7
		c-80.5,0-147.9-12.5-202.3-37.4c-51.4-22.7-96.8-57-132.6-100.3c-33.4-40.8-58.3-87.9-73.1-138.6c-14.7-50-22.1-101.8-22.1-153.9
		c-0.2-56.9,8.7-113.4,26.4-167.5c17-52.7,43.8-101.8,79.1-144.5c34.8-42.2,78.3-76.5,127.5-100.3c49.9-24.4,108.8-33.1,176.8-33.1
		c56.4-1.4,112.4,9.6,164.1,32.3c43.4,18.5,81.7,47.4,111.4,84.1c27.9,35.9,49.2,76.5,62.9,119.9c13.4,41.8,20.3,85.4,20.4,129.2
		c0,24.9-0.9,47.6-2.6,68c-1.7,20.4-3.1,35.1-4.2,44.2c-0.9,7.8-7.5,13.6-15.3,13.6c-6.8,0-18.4,0.9-34.9,2.6
		c-16.4,1.7-36.8,2.8-61.2,3.4C2028.1,1356.8,2002.3,1352.7,1975.1,1352.7L1975.1,1352.7z M1640.2,1197.8h222.7
		c27.2,0,47.3-0.3,60.4-0.8c8.7-0.9,17.1-3.7,24.7-8.2v-10.2c-0.3-13.3-2.6-26.5-6.8-39.1c-18.9-59.6-75.2-99.3-137.7-96.9
		c-58.5-3.5-113.5,27.8-140.3,79.9C1651.5,1146.1,1643.7,1171.6,1640.2,1197.8L1640.2,1197.8z"/>
</g>
</svg>
