<?xml version="1.0" encoding="utf-8"?>
<!-- Generator: Adobe Illustrator 28.1.0, SVG Export Plug-In . SVG Version: 6.00 Build 0)  -->
<svg version="1.1" id="Layer_1" xmlns="http://www.w3.org/2000/svg" xmlns:xlink="http://www.w3.org/1999/xlink" x="0px" y="0px"
	 viewBox="0 0 2500 2500" style="enable-background:new 0 0 2500 2500;" xml:space="preserve">
<style type="text/css">
	.st0{fill:#FFFFFF;}
	.st1{fill:#265787;}
	.st2{fill:#EA7600;}
</style>
<g>
	<path class="st0" d="M1006.2,1109.9c6.7-118.9,64.9-223.7,152.8-298c86.2-73,202.2-117.6,328.7-117.6
		c126.4,0,242.4,44.6,328.6,117.6c87.8,74.3,146,179.1,152.8,297.9c6.7,122.2-42.5,235.7-128.6,319.9
		c-87.9,85.6-212.8,139.3-352.8,139.3s-265.2-53.7-353-139.3C1048.5,1345.5,999.5,1232,1006.2,1109.9L1006.2,1109.9z"/>
	<path class="st1" d="M1240.3,1120.6c3.4-61,33.3-114.8,78.4-152.9c44.2-37.4,103.7-60.3,168.7-60.3c64.9,0,124.4,22.9,168.6,60.3
		c45.1,38.1,74.9,91.9,78.4,152.8c3.4,62.7-21.8,121-66,164.1c-45.1,43.9-109.2,71.5-181,71.5s-136.1-27.6-181.1-71.5
		C1262,1241.5,1236.9,1183.3,1240.3,1120.6L1240.3,1120.6z"/>
	<path class="st2" d="M846.9,1244.2c0.4,23.9,8,70.3,19.5,106.5c24,76.7,64.7,147.7,121.4,210.2c58.2,64.3,129.8,115.9,212.5,152.6
		c86.9,38.5,181.1,58.1,279,58c96.1,0.2,191.1-19.9,278.8-58.9c82.7-37,154.3-88.9,212.3-153.2c56.6-62.8,97.3-133.9,121.4-210.6
		c12.1-38.8,19.8-78.1,22.8-117.6c3-38.9,1.7-78.1-3.8-116.8c-10.7-75.3-37.1-147.4-77.4-211.9c-37.4-59.9-85.2-112.7-141.2-155.7
		l0.1-0.1l-571.6-438.9c-0.5-0.4-0.9-0.8-1.5-1.2c-37.5-28.8-100.6-28.7-141.8,0.2c-41.7,29.2-46.5,77.4-9.4,107.9l-0.2,0.2
		l238.4,193.9l-726.6,0.8h-1c-60.1,0.1-117.8,39.5-129.2,89.3c-11.7,50.7,29,92.8,91.5,93l-0.1,0.2l368.3-0.7L352,1295.8l-2.5,1.9
		c-62,47.5-82,126.4-43,176.4c39.6,50.8,123.9,50.9,186.5,0.3l358.7-293.6C851.7,1180.8,846.5,1220.5,846.9,1244.2L846.9,1244.2z
		 M1768.6,1376.9c-73.9,75.3-177.4,118-289.3,118.2c-112.1,0.2-215.6-42.1-289.5-117.3c-34.9-35.1-61.9-77.2-79-123.7
		c-16.1-44.2-22.3-91.4-18.1-138.2c3.9-45.7,17.4-90,39.6-130.1c22.3-40.2,52.2-75.6,87.9-104.5c71.8-58.5,163.3-90.2,259-90.4
		c95.8-0.1,187.2,31.3,259.1,89.6c35.7,28.8,65.5,64.2,87.8,104.2c22.2,40.1,35.8,84.4,39.8,130c4.1,46.8-2.1,93.9-18.2,138.1
		C1830.4,1299.5,1803.5,1341.8,1768.6,1376.9L1768.6,1376.9z"/>
</g>
<g>
	<path class="st1" d="M1738.3,1896.4c2.6-28.6,24.6-46.7,58.4-46.7c33.8,0,55.9,18.1,58.4,46.7H1738.3z M1851.7,1966.9
		c-8.6,21.2-29,33.7-56.7,33.7c-34.6,0-58-21.6-58.9-55.8h199.1v-10c0-85.6-50.2-133.7-140.2-133.7c-87.4,0-140.2,48.5-140.2,124.7
		c0,76.6,53.7,125,140.2,125c51.9,0,92.2-17.8,117.1-49.1L1851.7,1966.9L1851.7,1966.9z M854.8,1896.5c2.6-28.6,24.7-46.7,58.5-46.7
		c33.7,0,55.8,18.1,58.4,46.7H854.8z M968.2,1967.1c-8.7,21.2-29,33.8-56.7,33.8c-34.6,0-58-21.7-58.9-55.9h199.1v-10
		c0-85.6-50.2-133.7-140.2-133.7c-87.4,0-140.2,48.5-140.2,124.7c0,76.6,53.6,125,140.2,125c51.9,0,92.2-17.7,117.1-49.1
		L968.2,1967.1L968.2,1967.1z M681.7,1749.5h71.8v293.8h-71.8V1749.5z M1069.5,1827.5h72.2v17.5c25.6-27.3,56.3-41.1,90.9-41.1
		c39.9,0,70.1,13.8,85.7,37.3c13,19.4,13.9,42.8,13.9,73.6v128.5h-72.3v-112.9c0-46.8-9.4-68.5-50.5-68.5
		c-41.6,0-67.6,24.8-67.6,66.3v115h-72.2V1827.5L1069.5,1827.5z M1564.8,1929.5c0,40.2-26.9,66.6-68.4,66.6
		c-41.6,0-68.5-25.5-68.5-66.1c0-41.2,26.5-66.7,68.5-66.7C1537.9,1863.2,1564.8,1889.1,1564.8,1929.5z M1564.8,1837.3
		c-18.3-19.6-44.7-30.3-81.4-30.3c-79.2,0-133.3,48.8-133.3,122.1c0,71.8,53.7,122,132,122c35.9,0,62.3-9.1,82.7-29.4v21.6h72.3
		v-312.4l-72.3,18.6V1837.3z M517.5,1863.3c42,0,68.4,25.5,68.4,66.7c0,40.6-26.8,66.1-68.4,66.1c-41.5,0-68.4-26.4-68.4-66.6
		C449.1,1889.2,476,1863.3,517.5,1863.3z M449.1,1749.5l-72.3-18.6v312.4h72.3v-21.6c20.3,20.4,46.7,29.4,82.7,29.4
		c78.3,0,132-50.2,132-122c0-73.2-54.1-122.1-133.3-122.1c-36.8,0-63.2,10.7-81.4,30.3L449.1,1749.5L449.1,1749.5z M1953.1,2043.3
		v-215.7h72.3v13.3c21.6-26.1,44.5-39,70.6-39c5.2,0,11.7,0.8,20.3,1.7v61.5c-7-0.9-14.7-0.9-23-0.9c-42,0-67.9,27.7-67.9,74.8
		v104.3L1953.1,2043.3L1953.1,2043.3z"/>
</g>
</svg>
