<?xml version="1.0" encoding="utf-8"?>
<!-- Generator: Adobe Illustrator 28.1.0, SVG Export Plug-In . SVG Version: 6.00 Build 0)  -->
<svg version="1.1" id="Layer_1" xmlns="http://www.w3.org/2000/svg" xmlns:xlink="http://www.w3.org/1999/xlink" x="0px" y="0px"
	 viewBox="0 0 2500 2500" style="enable-background:new 0 0 2500 2500;" xml:space="preserve">
<style type="text/css">
	.st0{fill:#264DE4;}
	.st1{fill:#557EFF;}
	.st2{fill:#FFFFFF;}
</style>
<rect class="st0" width="2500" height="2500"/>
<polygon class="st1" points="1251,375.5 1251,375.5 422.3,375.5 452.1,706 1250,706 1250,706 1715.4,706 1685.6,1044.6 1251,1044.6 
	1251,1044.6 481.9,1044.6 511.2,1374.6 1250,1374.6 1250,1374.6 1656.8,1374.6 1618.4,1803.6 1250,1903.1 1250,1903.1 
	1249.5,1903.1 881.6,1803.6 857.9,1540.3 526.4,1540.3 572.4,2058.8 1249.5,2246.8 1251,2246.3 1251,2246.3 1927.1,2058.8 
	1932.2,2003.2 2010,1133 2018.1,1044.6 2077.7,375.5 "/>
<path class="st2" d="M1585.4,1540.4V1383h270.4v-53.9h-270.4v-360h444.4v148.8h-270.4v53.9h270.4v368.6H1585.4z M1027.5,1540.4V1383
	h270.4v-53.9h-270.4v-360h444.9v148.8h-270.4v53.9h270.4v368.6H1027.5z M470.2,1532.8V969.1h444.4v174.6H644.2v214.6h270.4v174.6
	H470.2z"/>
</svg>
