<?xml version="1.0" encoding="utf-8"?>
<!-- Generator: Adobe Illustrator 28.1.0, SVG Export Plug-In . SVG Version: 6.00 Build 0)  -->
<svg version="1.1" id="Layer_1" xmlns="http://www.w3.org/2000/svg" xmlns:xlink="http://www.w3.org/1999/xlink" x="0px" y="0px"
	 viewBox="0 0 2500 2500" style="enable-background:new 0 0 2500 2500;" xml:space="preserve">
<style type="text/css">
	.st0{fill:#474747;}
	.st1{fill:#0ACF83;}
	.st2{fill:#A259FF;}
	.st3{fill:#F24E1E;}
	.st4{fill:#FF7262;}
	.st5{fill:#1ABCFE;}
</style>
<rect class="st0" width="2500" height="2500"/>
<g>
	<path class="st1" d="M968.4,2156.2c155.5,0,281.6-126.2,281.6-281.6v-281.6H968.4c-155.5,0-281.6,126.2-281.6,281.6
		S812.9,2156.2,968.4,2156.2z"/>
	<path class="st2" d="M686.7,1311.3c0-155.5,126.2-281.6,281.6-281.6H1250v563.3H968.4C812.9,1592.9,686.7,1466.7,686.7,1311.3z"/>
	<path class="st3" d="M686.7,748c0-155.5,126.2-281.6,281.6-281.6H1250v563.3H968.4C812.9,1029.6,686.7,903.5,686.7,748z"/>
	<path class="st4" d="M1250,466.3h281.6c155.5,0,281.6,126.2,281.6,281.6s-126.2,281.6-281.6,281.6H1250V466.3z"/>
	<path class="st5" d="M1813.3,1311.3c0,155.5-126.2,281.6-281.6,281.6S1250,1466.7,1250,1311.3s126.2-281.6,281.6-281.6
		S1813.3,1155.8,1813.3,1311.3z"/>
</g>
</svg>
