<?xml version="1.0" encoding="utf-8"?>
<!-- Generator: Adobe Illustrator 28.1.0, SVG Export Plug-In . SVG Version: 6.00 Build 0)  -->
<svg version="1.1" id="Layer_1" xmlns="http://www.w3.org/2000/svg" xmlns:xlink="http://www.w3.org/1999/xlink" x="0px" y="0px"
	 viewBox="0 0 68 68" style="enable-background:new 0 0 68 68;" xml:space="preserve">
<style type="text/css">
	.st0{display:none;}
	.st1{display:inline;}
	.st2{clip-path:url(#SVGID_00000037666702865217301210000016162130878060404383_);}
	.st3{clip-path:url(#SVGID_00000021813956810376115970000018422738472266876091_);fill:#03C75A;}
</style>
<g id="Layer_1_00000139257479804876836040000011298023806759484806_">
	<g class="st0">
		<g class="st1">
			<defs>
				<polygon id="SVGID_1_" points="857.5,915.6 852.4,908.2 852.4,915.6 847,915.6 847,901.4 852.4,901.4 857.5,908.8 857.5,901.4 
					862.9,901.4 862.9,915.6 				"/>
			</defs>
			<clipPath id="SVGID_00000001664011063257516610000008630023758775129766_">
				<use xlink:href="#SVGID_1_"  style="overflow:visible;"/>
			</clipPath>
			<g style="clip-path:url(#SVGID_00000001664011063257516610000008630023758775129766_);">
				<g>
					<defs>
						<rect id="SVGID_00000176025561750490244170000018059918328925794974_" x="299" y="126.5" width="800" height="2520"/>
					</defs>
					<clipPath id="SVGID_00000089540989004680933430000008453725940377723298_">
						<use xlink:href="#SVGID_00000176025561750490244170000018059918328925794974_"  style="overflow:visible;"/>
					</clipPath>
					
						<rect x="842" y="896.4" style="clip-path:url(#SVGID_00000089540989004680933430000008453725940377723298_);fill:#03C75A;" width="25.9" height="24.3"/>
				</g>
			</g>
		</g>
	</g>
</g>
<g>
	<path d="M40.8,62.2c-0.1,0-0.1,0-0.2,0c0-3.8,0-7.7,0-11.5c0-1.6-0.4-3.1-1.4-4.4c-0.2-0.3-0.4-0.6-0.6-0.8
		c1.5-0.4,2.9-0.8,4.3-1.3c4.9-1.9,7.9-6.3,7.9-11.6c0-2.5-0.8-4.7-2.2-6.7c-0.6-0.8-0.9-1.6-0.4-2.6c0.1-0.2,0.1-0.5,0.1-0.8
		c0.2-1.8-0.1-3.5-0.7-5c-1.8-0.1-3.3,0.6-4.8,1.4c-0.6,0.4-1.3,0.7-1.9,1.1c-0.4,0.3-0.8,0.3-1.2,0.2c-3.6-0.9-7.1-1-10.7-0.1
		c-0.8,0.2-1.4,0.1-2.1-0.3c-1.9-1.2-3.9-2.4-6.3-2.3c-0.9,1.8-1.1,4.3-0.5,6.7c0.1,0.4,0.1,0.7-0.2,1.1c-2.5,3.4-3.2,7.3-2,11.4
		c1.2,4.2,4.2,6.7,8.2,8c1.1,0.4,2.2,0.6,3.3,0.9c0,0.1,0,0.1-0.1,0.1c-0.8,1.1-1.6,2.2-1.8,3.6c0,0.1-0.1,0.2-0.2,0.3
		c-1.3,0.5-2.6,0.5-3.7-0.4c-0.5-0.4-0.8-1-1.2-1.5c-0.7-0.8-1.4-1.7-2.2-2.3c-1-0.8-2.2-1.2-3.6-1.1c0.1,1.1,0.2,2.2,0.3,3.3
		c0.8,0,1.5,0.4,2,1c0.4,0.5,0.9,1.1,1.3,1.7c1.5,2.2,3.5,3.2,6.2,3.1c0.4,0,0.7-0.1,1.2-0.1c0,3.1,0,6.2,0,9.3c-0.1,0-0.1,0-0.2,0
		c-0.2-0.1-0.4-0.1-0.6-0.2c-1.3-0.5-2.7-0.9-4-1.5c-4-1.8-7.3-4.6-10.1-8c-3.2-4-5.3-8.5-6.2-13.6c-0.2-1.2-0.3-2.4-0.4-3.5
		c0-1,0-2,0-3C5.9,32,6,31.6,6,31.2c0.5-4.6,2-8.9,4.6-12.8c4.5-6.6,10.7-10.7,18.6-12.2c1-0.2,2.1-0.3,3.1-0.4c1.1,0,2.2,0,3.3,0
		C36.2,5.9,36.8,6,37.3,6c5.1,0.6,9.7,2.5,13.8,5.7c6.6,5.2,10.3,12,10.9,20.4c0.3,4.1-0.3,8-1.7,11.8c-1.6,4.3-4,8.1-7.3,11.2
		c-2.5,2.4-5.3,4.4-8.6,5.7C43.3,61.3,42,61.7,40.8,62.2z"/>
</g>
</svg>
