<?xml version="1.0" encoding="utf-8"?>
<!-- Generator: Adobe Illustrator 28.1.0, SVG Export Plug-In . SVG Version: 6.00 Build 0)  -->
<svg version="1.1" id="Layer_1" xmlns="http://www.w3.org/2000/svg" xmlns:xlink="http://www.w3.org/1999/xlink" x="0px" y="0px"
	 viewBox="0 0 2500 2500" style="enable-background:new 0 0 2500 2500;" xml:space="preserve">
<style type="text/css">
	.st0{fill:#E44D26;}
	.st1{fill:#F96B50;}
	.st2{fill:#FFFDFD;}
</style>
<rect class="st0" width="2500" height="2500"/>
<polygon class="st1" points="1250,435.6 1250,435.6 444.3,435.6 451.9,521.9 531.1,1407.8 1250,1407.8 1251,1407.8 1645.8,1407.8 
	1608.7,1824.7 1250,1921.5 1250,1921.5 1249.5,1921.5 891.3,1825.2 868.7,1568.8 545.7,1568.8 590.8,2073.5 1249.5,2256.6 
	1251,2256.1 1251,2256.1 1909.2,2073.5 1913.7,2019.3 1989.5,1172.5 1997,1086.2 1910.7,1086.2 1251,1086.2 1251,1086.2 
	825.6,1086.2 796,757.1 1250,757.1 1251,757.1 2026.6,757.1 2033.1,684.9 2048.1,521.9 2055.7,435.6 "/>
<g>
	<path class="st2" d="M212.8,984.7H373v158.3h146.5V984.7h160.3v479.3H519.5v-160.7H373v160.7H212.8V984.7L212.8,984.7z
		 M890.7,1143.9H749.6V984.7H1192v159.3h-141.1v320.5H891.2v-320.5H890.7z M1262.3,984.7h167.1l102.7,168.6l102.7-168.6H1802v479.3
		h-159.8V1226l-110.6,170.6h-2.5L1418.6,1226v237.9h-156.8V984.7L1262.3,984.7L1262.3,984.7z M1881.7,984.7h160.3v321h225.6v158.8
		h-385.9V984.7z"/>
</g>
</svg>
