<?xml version="1.0" encoding="utf-8"?>
<!-- Generator: Adobe Illustrator 28.1.0, SVG Export Plug-In . SVG Version: 6.00 Build 0)  -->
<svg version="1.1" id="Layer_1" xmlns="http://www.w3.org/2000/svg" xmlns:xlink="http://www.w3.org/1999/xlink" x="0px" y="0px"
	 viewBox="0 0 2500 2500" style="enable-background:new 0 0 2500 2500;" xml:space="preserve">
<style type="text/css">
	.st0{fill:#49021F;}
	.st1{fill:#F93465;}
</style>
<rect class="st0" width="2500" height="2500"/>
<g>
	<path class="st1" d="M1874.2,1220.3c0,191.6-0.2,383.2,0.2,574.7c0.1,24.2-0.2,45.4-28.7,55.4c-174.4,61.7-351.9,89.2-531.6,30.4
		c-183.3-59.9-275.5-202.5-285.8-404.9c-12.3-240.5,140.7-427.7,343.2-485.3c67-19,135.8-28.1,205-24.7c34.4,1.7,41.7-9.6,41.1-41.1
		c-1.7-94,0.6-188.1-1.3-282.1c-0.7-35.3,11.9-46.8,46.4-45.2c49.6,2.3,99.5,3.2,149-0.3c45.8-3.3,61.7,10.6,61,58.8
		c-2.7,188-1.1,376.1-1.1,564.1C1872.5,1220.3,1873.3,1220.3,1874.2,1220.3z M1616.6,1438.9c0-67.2-3.1-134.7,1-201.7
		c3-48.9-18.9-60.9-61.6-61.2c-128.2-0.8-284.8,80.1-269.6,289.5c11.4,157.6,128.1,247.9,295.4,226.7c27.7-3.5,35.5-15.3,35.1-41
		C1616,1580.5,1616.6,1509.7,1616.6,1438.9z"/>
	<path class="st1" d="M594.5,1294.2c0-180.9,1.2-361.8-0.9-542.6c-0.5-44.5,13.9-59.9,57.8-57.3c51.3,3.1,102.9,1.6,154.3,0.4
		c31.9-0.7,43.9,12.8,43.9,44.5c-0.7,372.4-1,744.8-0.3,1117.2c0.1,33.4-13.1,43.1-44.3,42.1c-53.2-1.7-106.5-2.6-159.6,0.3
		c-39.7,2.2-52-11.7-51.6-51.3C595.6,1663.1,594.6,1478.7,594.5,1294.2z"/>
</g>
</svg>
