<?xml version="1.0" encoding="utf-8"?>
<!-- Generator: Adobe Illustrator 28.1.0, SVG Export Plug-In . SVG Version: 6.00 Build 0)  -->
<svg version="1.1" id="Layer_1" xmlns="http://www.w3.org/2000/svg" xmlns:xlink="http://www.w3.org/1999/xlink" x="0px" y="0px"
	 viewBox="0 0 2500 2500" style="enable-background:new 0 0 2500 2500;" xml:space="preserve">
<style type="text/css">
	.st0{fill:#F7DF1E;}
</style>
<path class="st0" d="M0,0h2500v2500H0V0z"/>
<path d="M617.5,2009.9L808.7,1894c36.9,65.5,70.6,120.6,151.2,120.6c77.4,0,125.8-30.2,125.8-147.6v-798.8h234.9v802
	c0,243.3-142.5,354-350.8,354C782.1,2224.6,673,2127.4,617.5,2009.9 M1448.4,1984.5l191.3-110.7c50.4,82.1,115.9,142.5,231.7,142.5
	c97.2,0,159.5-48.8,159.5-115.9c0-80.6-63.9-109.1-171-156l-58.7-25.4c-169.4-72.2-281.7-162.7-281.7-354
	c0-176.2,134.1-310.3,344-310.3c149.2,0,256.7,52,334.1,188.1l-182.9,117.5c-40.1-72.2-83.7-100.8-151.2-100.8
	c-68.7,0-112.3,43.7-112.3,100.8c0,70.6,43.7,99.2,144.4,142.9l58.7,25.4c199.6,85.7,312.3,172.6,312.3,369
	c0,211.5-166.3,327.4-389.3,327.4C1657.9,2224.6,1517.1,2120.6,1448.4,1984.5"/>
</svg>
