<?xml version="1.0" encoding="utf-8"?>
<!-- Generator: Adobe Illustrator 28.1.0, SVG Export Plug-In . SVG Version: 6.00 Build 0)  -->
<svg version="1.1" id="Layer_1" xmlns="http://www.w3.org/2000/svg" xmlns:xlink="http://www.w3.org/1999/xlink" x="0px" y="0px"
	 viewBox="0 0 68 68" style="enable-background:new 0 0 68 68;" xml:space="preserve">
<style type="text/css">
	.st0{display:none;}
	.st1{display:inline;}
	.st2{clip-path:url(#SVGID_00000158736492910151963910000004329223892017715333_);}
	.st3{clip-path:url(#SVGID_00000132809947109246651250000007210860075675086234_);fill:#03C75A;}
	.st4{fill:#FEEA3B;}
	.st5{fill:#3F2823;}
</style>
<g id="Layer_1_00000139257479804876836040000011298023806759484806_">
	<g class="st0">
		<g class="st1">
			<defs>
				<polygon id="SVGID_1_" points="857.5,915.6 852.4,908.2 852.4,915.6 847,915.6 847,901.4 852.4,901.4 857.5,908.8 857.5,901.4 
					862.9,901.4 862.9,915.6 				"/>
			</defs>
			<clipPath id="SVGID_00000114788987406744794960000009872848561297377922_">
				<use xlink:href="#SVGID_1_"  style="overflow:visible;"/>
			</clipPath>
			<g style="clip-path:url(#SVGID_00000114788987406744794960000009872848561297377922_);">
				<g>
					<defs>
						<rect id="SVGID_00000098916030642971791910000014469138226578423973_" x="299" y="126.5" width="800" height="2520"/>
					</defs>
					<clipPath id="SVGID_00000059273210434108408800000013844444920528880009_">
						<use xlink:href="#SVGID_00000098916030642971791910000014469138226578423973_"  style="overflow:visible;"/>
					</clipPath>
					
						<rect x="842" y="896.4" style="clip-path:url(#SVGID_00000059273210434108408800000013844444920528880009_);fill:#03C75A;" width="25.9" height="24.3"/>
				</g>
			</g>
		</g>
	</g>
</g>
<g>
	<path class="st4" d="M31.3,0.5c9.6-0.8,19.5,2.7,26.3,9.6C75.8,28,68.2,58.6,43.9,66.2c-6.9,2.1-14.4,2-21.1-0.4
		c-8.1-2.9-15.2-9.1-19-16.9C-6.7,27.6,7.6,2.5,31.3,0.5L31.3,0.5z"/>
	<path class="st5" d="M34.1,44.9c-0.9,0-1.7,0-2.5-0.1c-0.4-0.1-0.8,0.1-1.1,0.3c-1.8,1.3-3.5,2.5-5.4,3.7c-0.3,0.2-0.7,0.4-1,0.6
		c-0.6,0.2-0.8,0-0.7-0.6c0.1-0.7,0.3-1.4,0.6-2.2c0.3-1,0.6-2,0.9-2.9c0.2-0.6,0.1-0.8-0.4-1.1c-2.6-1.4-4.7-3.3-6.1-5.9
		c-2.1-4.2-1.4-8.9,1.8-12.4c2.8-3.1,6.5-4.8,10.6-5.4c4.6-0.7,9.1,0,13.2,2.3c1.9,1.1,3.6,2.5,4.9,4.4c3,4.4,2.6,9.8-1.1,13.9
		c-2.8,3-6.3,4.6-10.3,5.3C36.3,44.8,35.2,45,34.1,44.9z M42.1,30.9c-0.1-0.9,0.1-1.6-0.1-2.3c-0.1-0.5-0.4-0.8-1-0.7
		c-0.5,0-0.9,0.4-0.9,0.9c0,2.2,0,4.4,0,6.6c0,0.7,0.4,1.1,1,1.1c0.6,0,1-0.5,1-1.2c0-0.5,0-1.1,0-1.6c0-0.2,0-0.4,0.2-0.5
		c0.3-0.1,0.3,0.2,0.4,0.3c0.6,0.8,1.2,1.6,1.9,2.5c0.5,0.6,1,0.7,1.5,0.3c0.5-0.4,0.5-0.9,0.1-1.4c-0.7-0.9-1.3-1.8-2-2.6
		c-0.2-0.3-0.2-0.5,0-0.8c0.6-0.6,1.2-1.2,1.8-1.8c0.4-0.4,0.4-0.8,0-1.2c-0.4-0.4-0.8-0.4-1.2-0.1c-0.2,0.2-0.4,0.3-0.5,0.5
		C43.5,29.4,42.8,30.1,42.1,30.9z M34.2,35.5c0-0.4-0.1-0.7-0.2-1c-0.7-1.8-1.5-3.6-2.1-5.5c-0.3-0.8-0.7-1.1-1.3-1.1
		c-0.6,0-1.1,0.4-1.4,1.1c-0.5,1.5-1.1,3-1.8,4.5c-0.2,0.5-0.4,1.1-0.6,1.7c-0.1,0.5-0.1,1,0.6,1.2c0.6,0.2,1.1,0,1.2-0.7
		c0.2-0.9,0.7-1.3,1.5-1.1c0.2,0,0.4,0,0.5,0c0.8-0.1,1.6,0.1,1.7,1.2c0,0.2,0.2,0.3,0.3,0.4c0.3,0.3,0.7,0.3,1.1,0.1
		C34.1,36.1,34.2,35.8,34.2,35.5z M23.7,32.7C23.7,32.7,23.7,32.7,23.7,32.7c0,0.2,0,0.5,0,0.7c0,0.7-0.1,1.4,0,2.1
		c0.1,0.5,0.4,0.8,0.9,0.8c0.5,0,0.8-0.2,0.9-0.7c0.1-0.4,0.1-0.7,0.1-1.1c0-1.1-0.1-2.3-0.1-3.4c0-1.4,0-1.4,1.4-1.4
		c0.8,0,1.1-0.3,1.2-0.9c0-0.6-0.3-1-1.1-1c-1.6,0-3.2,0-4.9,0c-0.6,0-0.9,0.4-0.9,0.9c0,0.5,0.3,0.9,0.8,0.9c0.4,0,0.7,0,1.1,0
		c0.4,0,0.6,0.1,0.5,0.5C23.7,31,23.7,31.9,23.7,32.7z M34.7,31.9C34.7,31.9,34.7,31.9,34.7,31.9c0,1.1,0,2.1,0,3.2
		c0,0.5,0.2,1.1,0.7,1.1c1.2,0,2.3,0.1,3.5-0.1c0.5-0.1,0.8-0.3,0.8-0.8c0-0.5-0.3-0.7-0.8-0.8c-0.5-0.1-1-0.1-1.4,0
		c-0.6,0.1-0.8-0.1-0.8-0.7c0.1-1.6,0-3.1,0-4.7c0-0.8-0.4-1.2-1-1.2c-0.6,0-1,0.4-1,1.2C34.7,30,34.7,30.9,34.7,31.9z"/>
	<path class="st4" d="M42.1,30.9c0.8-0.8,1.5-1.5,2.1-2.2c0.2-0.2,0.3-0.4,0.5-0.5c0.4-0.4,0.9-0.3,1.2,0.1c0.4,0.4,0.4,0.8,0,1.2
		c-0.6,0.6-1.2,1.2-1.8,1.8c-0.3,0.3-0.3,0.5,0,0.8c0.7,0.9,1.3,1.7,2,2.6c0.4,0.6,0.4,1.1-0.1,1.4c-0.5,0.4-1,0.3-1.5-0.3
		c-0.6-0.8-1.2-1.6-1.9-2.5c-0.1-0.1-0.2-0.4-0.4-0.3C42,33.2,42,33.4,42,33.6c0,0.5,0,1.1,0,1.6c0,0.7-0.4,1.2-1,1.2
		c-0.6,0-1-0.3-1-1.1c0-2.2,0-4.4,0-6.6c0-0.5,0.4-0.8,0.9-0.9c0.5,0,0.9,0.2,1,0.7C42.1,29.3,41.9,30,42.1,30.9z"/>
	<path class="st4" d="M34.2,35.5c0,0.4-0.1,0.6-0.5,0.8c-0.4,0.2-0.8,0.2-1.1-0.1c-0.1-0.1-0.3-0.3-0.3-0.4c-0.1-1.1-0.9-1.1-1.7-1
		c-0.2,0-0.3,0-0.5,0c-0.8,0-1.3,0.1-1.5,1c-0.2,0.7-0.6,0.8-1.2,0.7c-0.7-0.2-0.7-0.7-0.6-1.2c0.2-0.6,0.3-1.1,0.6-1.7
		c0.6-1.5,1.2-3,1.8-4.5c0.3-0.7,0.7-1.1,1.4-1.1c0.6,0,1.1,0.4,1.3,1.1c0.6,1.9,1.5,3.6,2.1,5.5C34,34.8,34.2,35.1,34.2,35.5z
		 M30.5,30.3c-0.2,0.6-0.4,1-0.5,1.3c-0.5,1.5-0.5,1.5,1.1,1.4c0.3,0,0.4-0.1,0.3-0.4C31,31.9,30.8,31.2,30.5,30.3z"/>
	<path class="st4" d="M23.7,32.7c0-0.8,0-1.7,0-2.5c0-0.4-0.2-0.5-0.5-0.5c-0.4,0-0.7,0-1.1,0c-0.5-0.1-0.9-0.4-0.8-0.9
		c0-0.6,0.3-0.9,0.9-0.9c1.6,0,3.2,0,4.9,0c0.8,0,1.1,0.4,1.1,1c0,0.6-0.4,0.8-1.2,0.9c-1.3,0-1.4,0-1.4,1.4c0,1.1,0.1,2.3,0.1,3.4
		c0,0.4,0,0.7-0.1,1.1c-0.1,0.5-0.4,0.7-0.9,0.7c-0.6,0-0.8-0.3-0.9-0.8c-0.1-0.7,0-1.4,0-2.1C23.7,33.2,23.7,32.9,23.7,32.7
		C23.7,32.7,23.7,32.7,23.7,32.7z"/>
	<path class="st4" d="M34.7,31.9c0-1,0-1.9,0-2.9c0-0.8,0.3-1.2,1-1.2c0.6,0,1,0.4,1,1.2c0,1.6,0,3.1,0,4.7c0,0.7,0.2,0.8,0.8,0.7
		c0.5-0.1,1-0.1,1.4,0c0.5,0.1,0.8,0.3,0.8,0.8c0,0.5-0.3,0.8-0.8,0.8c-1.2,0.2-2.3,0.1-3.5,0.1c-0.6,0-0.7-0.6-0.7-1.1
		C34.6,34,34.7,33,34.7,31.9C34.7,31.9,34.7,31.9,34.7,31.9z"/>
	<path class="st5" d="M30.5,30.3c0.3,0.9,0.6,1.6,0.8,2.3c0.1,0.3,0.1,0.4-0.3,0.4c-1.6,0.1-1.6,0.1-1.1-1.4
		C30.1,31.2,30.2,30.8,30.5,30.3z"/>
</g>
</svg>
