<?xml version="1.0" encoding="utf-8"?>
<!-- Generator: Adobe Illustrator 28.1.0, SVG Export Plug-In . SVG Version: 6.00 Build 0)  -->
<svg version="1.1" xmlns="http://www.w3.org/2000/svg" xmlns:xlink="http://www.w3.org/1999/xlink" x="0px" y="0px"
	 viewBox="0 0 68 68" style="enable-background:new 0 0 68 68;" xml:space="preserve">
<style type="text/css">
	.st0{display:none;}
	.st1{display:inline;}
	.st2{display:inline;clip-path:url(#SVGID_00000124865279388941614080000012327650778737912752_);}
	.st3{clip-path:url(#SVGID_00000041988898505629136940000014442198314842686374_);fill:#03C75A;}
	.st4{fill:#03C75A;}
	.st5{fill:#FFFFFF;}
</style>
<g id="Layer_1">
	<g class="st0">
		<defs>
			<polygon id="SVGID_1_" points="857.48,915.64 852.36,908.25 852.36,915.64 847.02,915.64 847.02,901.36 852.43,901.36 
				857.55,908.75 857.55,901.36 862.89,901.36 862.89,915.64 			"/>
		</defs>
		<clipPath id="SVGID_00000018233289471482398200000007526400440221587621_" class="st1">
			<use xlink:href="#SVGID_1_"  style="overflow:visible;"/>
		</clipPath>
		<g style="display:inline;clip-path:url(#SVGID_00000018233289471482398200000007526400440221587621_);">
			<defs>
				<rect id="SVGID_00000122689461232573113290000000458098495934847379_" x="299" y="126.5" width="800" height="2520"/>
			</defs>
			<clipPath id="SVGID_00000052812014490767761150000004627120517860828800_">
				<use xlink:href="#SVGID_00000122689461232573113290000000458098495934847379_"  style="overflow:visible;"/>
			</clipPath>
			
				<rect x="842.02" y="896.36" style="clip-path:url(#SVGID_00000052812014490767761150000004627120517860828800_);fill:#03C75A;" width="25.87" height="24.28"/>
		</g>
	</g>
</g>
<g id="Layer_2">
	<g>
		<path class="st4" d="M34,68L34,68C15.3,68,0,52.7,0,34v0C0,15.3,15.3,0,34,0h0c18.7,0,34,15.3,34,34v0C68,52.7,52.7,68,34,68z"/>
		<polygon class="st5" points="38.42,34.87 29.22,21.7 21.59,21.7 21.59,46.3 29.58,46.3 29.58,33.13 38.78,46.3 46.41,46.3 
			46.41,21.7 38.42,21.7 		"/>
	</g>
</g>
</svg>
