<?xml version="1.0" encoding="utf-8"?>
<!-- Generator: Adobe Illustrator 28.1.0, SVG Export Plug-In . SVG Version: 6.00 Build 0)  -->
<svg version="1.1" id="Layer_1" xmlns="http://www.w3.org/2000/svg" xmlns:xlink="http://www.w3.org/1999/xlink" x="0px" y="0px"
	 viewBox="0 0 2500 2500" style="enable-background:new 0 0 2500 2500;" xml:space="preserve">
<style type="text/css">
	.st0{fill:#00005B;}
	.st1{fill:#9999FF;}
</style>
<rect class="st0" width="2500" height="2500"/>
<g>
	<path class="st1" d="M527.8,1816.9V657.6c0-7.9,3.4-12.4,11.3-12.4c19.2,0,37.2,0,63.1-1.1c27-1.1,55.2-1.1,85.6-2.3
		c30.4-1.1,63.1-1.1,98-2.3c34.9-1.1,68.7-1.1,102.5-1.1c92.4,0,169,11.3,232.1,34.9c56.6,19.2,108.1,50.8,151,92.4
		c36.3,36.4,64.3,80.2,82.2,128.4c17.1,46.9,25.8,96.5,25.9,146.5c0,96.9-22.5,176.9-67.6,240c-45.3,63-108.5,110.9-181.4,137.4
		c-76.6,28.2-161.1,38.3-253.5,38.3c-27,0-45.1,0-56.3-1.1c-11.3-1.1-27-1.1-48.4-1.1v361.6c1,7.7-4.4,14.7-12.1,15.7
		c-0.1,0-0.2,0-0.3,0H541.3C532.3,1831.5,527.8,1827,527.8,1816.9L527.8,1816.9z M773.4,862.7v378.5c15.8,1.1,30.4,2.3,43.9,2.3H877
		c44,0.1,87.7-6.8,129.6-20.3c35.9-10.6,68-31.3,92.4-59.7c23.7-28.2,34.9-66.5,34.9-116c1.1-35.2-7.9-70-25.9-100.3
		c-18.8-29.3-46.4-51.7-78.9-64.2c-42.3-16.6-87.5-24.2-132.9-22.5c-29.3,0-55.2,0-76.6,1.1C804.2,860.5,788.7,860.9,773.4,862.7
		L773.4,862.7z M1537.2,928h197.2c11,0.3,20.5,7.5,23.7,18c3.4,9.1,5.7,18.5,6.8,28.2c2.3,11.3,4.5,23.7,5.6,34.9
		c1.1,12.4,2.3,25.9,2.3,40.6c33.8-39.5,74.7-72.3,120.5-96.9c52.4-29.1,111.3-44.2,171.2-43.9c7.7-1,14.7,4.4,15.7,12.1
		c0,0.1,0,0.2,0,0.3v224.2c0,9-5.6,12.4-18,12.4c-40.9-1.3-81.7,2.4-121.7,11.3c-32.5,6.7-64.3,16.9-94.6,30.4
		c-21.8,9.8-41.4,24-57.5,41.7v574.6c0,11.3-4.5,15.8-14.6,15.8h-221.9c-8.5,1.4-16.5-4.3-17.9-12.8c0-0.2-0.1-0.5-0.1-0.7v-628.6
		c0-27,0-55.2-1.1-84.5c-1.1-29.3-1.1-58.6-2.3-87.9c0-25.9-2.3-50.7-4.5-76.6c-1.2-5.6,2.3-11.1,7.9-12.4c0,0,0,0,0,0
		C1533.8,926.9,1536.1,926.9,1537.2,928L1537.2,928z"/>
</g>
</svg>
