<?xml version="1.0" encoding="utf-8"?>
<!-- Generator: Adobe Illustrator 28.1.0, SVG Export Plug-In . SVG Version: 6.00 Build 0)  -->
<svg version="1.1" id="Layer_1" xmlns="http://www.w3.org/2000/svg" xmlns:xlink="http://www.w3.org/1999/xlink" x="0px" y="0px"
	 viewBox="0 0 2500 2500" style="enable-background:new 0 0 2500 2500;" xml:space="preserve">
<style type="text/css">
	.st0{fill:#001E36;}
	.st1{fill:#31A8FF;}
</style>
<rect class="st0" width="2500" height="2500"/>
<g>
	<path class="st1" d="M507.3,1789.4V655.3c0-8.3,3.5-12.4,10.6-12.4c18.9,0,36.2-0.3,62.2-0.9c26-0.6,54.1-1.2,84.3-1.8
		c30.2-0.6,62.1-1.2,95.9-1.8c33.7-0.6,67.1-0.9,100.3-0.9c89.9,0,165.6,11.2,227.2,33.7c55.5,18.8,106.1,49.7,148.2,90.5
		c35.6,35.4,63.2,78.1,80.8,125.1c16.6,45.8,25,94.2,24.8,142.9c0,94.7-21.9,172.8-65.7,234.3c-44.1,61.8-106,108.5-177.5,134
		c-74.5,27.8-157.4,37.2-248.5,37.2c-26,0-44.4-0.3-55-0.9c-10.6-0.6-26.6-0.9-47.9-0.9v354.1c1.1,7.7-4.2,14.9-11.9,16
		c-1.3,0.2-2.7,0.2-4,0H519.8C511.5,1803.7,507.3,1798.9,507.3,1789.4L507.3,1789.4z M747,855.9v369.9c15.4,1.2,29.6,1.8,42.6,1.8
		h58.6c43.1-0.1,85.9-7,126.9-20.3c35.2-10.4,66.6-30.8,90.5-58.6c23.1-27.2,34.6-65.1,34.6-113.6c0.9-34.3-8-68.2-25.7-97.6
		c-18.7-28.4-45.6-50.4-77.2-63c-41.3-16-85.3-23.6-129.6-22.2c-28.4,0-53.5,0.3-75.4,0.9C770.4,853.8,755.3,854.7,747,855.9z
		 M2027.9,1158.5c-33.4-17.1-68.9-29.7-105.6-37.3c-40.5-9.3-81.8-14-123.3-14.2c-22.5-0.6-44.9,2.1-66.6,8
		c-13.8,3.1-26.1,10.9-34.6,22.2c-5.8,9-8.9,19.5-8.9,30.2c0.3,10.4,4.1,20.4,10.6,28.4c10.4,12.1,23,22.1,37.3,29.3
		c25.3,13.6,51.4,25.8,78.1,36.4c59.6,19.9,116.5,47.1,169.5,80.8c36.1,22.8,66,54.2,87,91.4c17.6,35.2,26.5,74.2,25.7,113.6
		c1.1,52-13.8,103.1-42.6,146.4c-30.8,44-73.6,78.2-123.4,98.5c-53.9,23.7-120.4,35.5-199.7,35.5c-50.4,0.5-100.6-4.2-150-14.2
		c-38.9-7.1-76.7-19.1-112.7-35.5c-7.9-4.1-12.8-12.4-12.4-21.3V1565c-0.4-3.8,1.3-7.6,4.4-9.8c3.1-1.8,7-1.4,9.8,0.9
		c42.5,25,88.6,43.3,136.7,54.1c42.4,10.6,85.9,16.3,129.6,16.9c41.4,0,71.9-5.3,91.4-16c18-8.2,29.5-26.3,29.3-46.1
		c0-15.4-8.9-30.2-26.6-44.4c-17.7-14.2-53.8-31.4-108.3-51.5c-55.7-19.4-108.6-46.3-157.1-79.9c-34.7-24.1-63.3-56-83.4-93.2
		c-17.5-35-26.3-73.6-25.7-112.7c-0.1-47,12.8-93,37.3-133.1c27.9-44.1,68-79.3,115.4-101.2c52.1-26,117.1-39,195.2-39
		c45.7-0.4,91.4,2.9,136.7,9.8c32.7,4.2,64.8,12.8,95.1,25.7c4.9,1.4,8.8,5,10.7,9.8c1.2,4.3,1.8,8.8,1.8,13.3v179.2
		c0.3,4.2-1.8,8.3-5.3,10.7C2038.3,1160.9,2032.7,1160.9,2027.9,1158.5L2027.9,1158.5z"/>
</g>
</svg>
